<?xml version="1.0" encoding="UTF-8"?>
<svg id="svg2" xmlns="http://www.w3.org/2000/svg" xmlns:xlink="http://www.w3.org/1999/xlink" xmlns:svg="http://www.w3.org/2000/svg" xmlns:rdf="http://www.w3.org/1999/02/22-rdf-syntax-ns#" xmlns:dc="http://purl.org/dc/elements/1.1/" xmlns:cc="http://creativecommons.org/ns#" version="1.1" viewBox="0 0 861.33 255.21">
  <defs>
    <style>
      .cls-1 {
        fill: #100f0d;
      }

      .cls-1, .cls-2, .cls-3, .cls-4, .cls-5, .cls-6, .cls-7, .cls-8 {
        stroke-width: 0px;
      }

      .cls-9 {
        clip-path: url(#clippath);
      }

      .cls-2 {
        fill: none;
      }

      .cls-3 {
        fill: #f6b60b;
      }

      .cls-4 {
        fill: #a2a2a1;
      }

      .cls-10 {
        clip-path: url(#clippath-1);
      }

      .cls-5 {
        fill: #3bad49;
      }

      .cls-6 {
        fill: #5778c5;
      }

      .cls-7 {
        fill: #eb3131;
      }

      .cls-8 {
        fill: #fff;
      }
    </style>
    <clipPath id="clippath">
      <rect class="cls-2" y="0" width="861.33" height="255.21"/>
    </clipPath>
    <clipPath id="clippath-1">
      <rect class="cls-2" width="861.33" height="255.21"/>
    </clipPath>
  </defs>
  <g id="g10">
    <g id="g12">
      <g id="g14">
        <g class="cls-9">
          <g id="g16">
            <path id="path22" class="cls-1" d="M829.43,255.21H31.9c-17.55,0-31.9-14.35-31.9-31.9V31.9C0,14.35,14.36,0,31.9,0h797.53c17.55,0,31.9,14.35,31.9,31.9v191.41c0,17.55-14.36,31.9-31.9,31.9"/>
            <path id="path24" class="cls-4" d="M829.43,0H31.9C14.36,0,0,14.36,0,31.9v191.41c0,17.55,14.36,31.9,31.9,31.9h797.53c17.55,0,31.9-14.35,31.9-31.9V31.9C861.33,14.36,846.98,0,829.43,0M829.43,5.11c14.78,0,26.8,12.02,26.8,26.8v191.41c0,14.78-12.02,26.8-26.8,26.8H31.9c-14.78,0-26.8-12.02-26.8-26.8V31.9c0-14.78,12.02-26.8,26.8-26.8h797.53"/>
            <path id="path26" class="cls-8" d="M682.28,191.41h11.91v-79.76h-11.91v79.76ZM789.51,140.38l-13.65,34.58h-.41l-14.16-34.58h-12.82l21.24,48.33-12.11,26.89h12.42l32.74-75.22h-13.24ZM722,182.35c-3.91,0-9.34-1.95-9.34-6.77,0-6.16,6.77-8.51,12.62-8.51,5.23,0,7.69,1.13,10.88,2.67-.93,7.39-7.29,12.62-14.16,12.62M723.43,138.64c-8.62,0-17.55,3.8-21.25,12.21l10.57,4.42c2.26-4.42,6.46-5.85,10.88-5.85,6.16,0,12.42,3.69,12.52,10.26v.82c-2.16-1.23-6.78-3.07-12.42-3.07-11.39,0-22.99,6.26-22.99,17.95,0,10.67,9.34,17.55,19.8,17.55,8.01,0,12.42-3.59,15.19-7.8h.41v6.16h11.49v-30.58c0-14.16-10.57-22.06-24.21-22.06M649.85,150.09h-16.93v-27.35h16.93c8.9,0,13.95,7.38,13.95,13.67s-5.05,13.67-13.95,13.67M649.55,111.65h-28.53v79.76h11.9v-30.22h16.63c13.19,0,26.17-9.56,26.17-24.77s-12.97-24.77-26.17-24.77M493.99,182.36c-8.22,0-15.11-6.88-15.11-16.34s6.88-16.55,15.11-16.55,14.49,6.99,14.49,16.55-6.37,16.34-14.49,16.34M507.66,144.85h-.41c-2.67-3.18-7.81-6.07-14.29-6.07-13.57,0-26.01,11.93-26.01,27.24s12.43,27.03,26.01,27.03c6.48,0,11.61-2.88,14.29-6.17h.41v3.9c0,10.39-5.55,15.93-14.49,15.93-7.3,0-11.82-5.24-13.67-9.66l-10.38,4.32c2.98,7.2,10.9,16.03,24.05,16.03,13.98,0,25.8-8.22,25.8-28.27v-48.73h-11.31v4.42ZM527.19,191.41h11.93v-79.77h-11.93v79.77ZM556.69,165.1c-.31-10.49,8.12-15.83,14.18-15.83,4.73,0,8.74,2.36,10.07,5.75l-24.26,10.07ZM593.69,156.05c-2.27-6.07-9.15-17.27-23.23-17.27s-25.59,11-25.59,27.14c0,15.21,11.51,27.13,26.93,27.13,12.44,0,19.63-7.61,22.62-12.03l-9.25-6.17c-3.09,4.52-7.3,7.5-13.37,7.5s-10.38-2.78-13.16-8.22l36.29-15.01-1.23-3.08ZM304.62,147.11v11.51h27.54c-.82,6.48-2.98,11.2-6.27,14.49-4.01,4.01-10.29,8.43-21.28,8.43-16.97,0-30.22-13.67-30.22-30.63s13.26-30.63,30.22-30.63c9.15,0,15.83,3.59,20.76,8.22l8.12-8.11c-6.89-6.58-16.03-11.62-28.88-11.62-23.23,0-42.76,18.92-42.76,42.14s19.53,42.15,42.76,42.15c12.54,0,21.99-4.12,29.39-11.82,7.61-7.61,9.97-18.29,9.97-26.93,0-2.67-.21-5.14-.62-7.19h-38.75ZM375.3,182.36c-8.22,0-15.31-6.78-15.31-16.44s7.09-16.45,15.31-16.45,15.32,6.68,15.32,16.45-7.09,16.44-15.32,16.44M375.3,138.78c-15.01,0-27.24,11.41-27.24,27.14s12.23,27.13,27.24,27.13,27.24-11.52,27.24-27.13-12.24-27.14-27.24-27.14M434.72,182.36c-8.22,0-15.32-6.78-15.32-16.44s7.1-16.45,15.32-16.45,15.31,6.68,15.31,16.45-7.09,16.44-15.31,16.44M434.72,138.78c-15.01,0-27.24,11.41-27.24,27.14s12.23,27.13,27.24,27.13,27.24-11.52,27.24-27.13-12.23-27.14-27.24-27.14"/>
            <path id="path28" class="cls-7" d="M132.18,123.93l-67.93,72.1s0,.03.01.04c2.09,7.83,9.23,13.59,17.72,13.59,3.39,0,6.58-.92,9.31-2.53l.22-.13,76.46-44.12-35.79-38.96"/>
            <path id="path30" class="cls-3" d="M200.9,111.65l-.06-.05-33.01-19.13-37.19,33.09,37.32,37.31,32.83-18.94c5.75-3.11,9.67-9.18,9.67-16.17s-3.85-12.99-9.56-16.11"/>
            <path id="path32" class="cls-6" d="M64.25,59.19c-.41,1.51-.63,3.09-.63,4.72v127.4c0,1.63.22,3.22.63,4.72l70.26-70.25L64.25,59.19"/>
            <path id="path34" class="cls-5" d="M132.68,127.61l35.15-35.15-76.37-44.28c-2.78-1.67-6.02-2.62-9.48-2.62-8.49,0-15.64,5.77-17.73,13.61,0,0,0,.01,0,.02l68.43,68.42"/>
          </g>
        </g>
      </g>
      <g id="g36">
        <g class="cls-10">
          <g id="g38">
            <path id="path44" class="cls-8" d="M279.14,78.02c4.51,0,8.02-1.25,10.52-3.75,2.5-2.5,3.75-5.95,3.75-10.35s-1.25-7.86-3.75-10.35-6-3.75-10.52-3.75h-6.44v28.2h6.44ZM266.59,44.05h12.71c4.11,0,7.69.83,10.74,2.5,3.05,1.67,5.4,4.01,7.05,7.02,1.65,3.02,2.47,6.47,2.47,10.35s-.82,7.34-2.47,10.35c-1.65,3.02-4,5.36-7.05,7.02-3.05,1.67-6.63,2.5-10.74,2.5h-12.71v-39.74"/>
            <path id="path46" class="cls-8" d="M307.5,44.05h6.11v39.74h-6.11v-39.74"/>
            <path id="path48" class="cls-8" d="M326.38,81.8c-2.63-1.92-4.46-4.63-5.49-8.1l5.77-2.33c.59,2.22,1.65,4.03,3.16,5.44,1.52,1.41,3.35,2.11,5.5,2.11,2,0,3.69-.52,5.08-1.55,1.39-1.04,2.08-2.46,2.08-4.27,0-1.67-.61-3.04-1.83-4.14-1.22-1.09-3.33-2.16-6.33-3.19l-2.5-.89c-2.7-.96-4.95-2.3-6.74-4.02-1.79-1.72-2.69-4.01-2.69-6.86,0-1.96.53-3.77,1.58-5.44,1.05-1.67,2.53-2.98,4.44-3.94,1.91-.96,4.06-1.44,6.47-1.44,3.44,0,6.2.84,8.27,2.53,2.07,1.69,3.48,3.58,4.22,5.69l-5.5,2.33c-.37-1.33-1.15-2.48-2.33-3.44-1.18-.96-2.72-1.44-4.61-1.44s-3.35.48-4.61,1.44c-1.26.96-1.89,2.18-1.89,3.66,0,1.37.56,2.51,1.69,3.41,1.13.91,2.88,1.77,5.24,2.58l2.55.89c3.41,1.19,6.03,2.72,7.88,4.61,1.85,1.89,2.77,4.41,2.77,7.55,0,2.59-.66,4.77-1.97,6.52-1.31,1.76-3,3.06-5.05,3.91-2.05.85-4.15,1.28-6.3,1.28-3.29,0-6.25-.96-8.88-2.89"/>
            <path id="path50" class="cls-8" d="M370.39,62.59c2.03,0,3.67-.64,4.91-1.91s1.86-2.77,1.86-4.47-.62-3.19-1.86-4.47c-1.24-1.28-2.88-1.91-4.91-1.91h-7.72v12.77h7.72ZM356.57,44.05h13.65c2.37,0,4.54.52,6.52,1.55,1.98,1.04,3.55,2.48,4.72,4.33,1.17,1.85,1.75,3.94,1.75,6.27s-.58,4.42-1.75,6.27c-1.17,1.85-2.74,3.29-4.72,4.33-1.98,1.04-4.15,1.55-6.52,1.55h-7.55v15.43h-6.11v-39.74"/>
            <path id="path52" class="cls-8" d="M416.27,77c2.2-1.28,3.94-3.05,5.22-5.33,1.28-2.28,1.92-4.86,1.92-7.74s-.64-5.47-1.92-7.74c-1.28-2.28-3.01-4.05-5.22-5.33-2.2-1.28-4.63-1.91-7.3-1.91s-5.1.64-7.3,1.91c-2.2,1.28-3.94,3.05-5.22,5.33-1.28,2.28-1.92,4.86-1.92,7.74s.64,5.47,1.92,7.74c1.28,2.28,3.02,4.05,5.22,5.33,2.2,1.28,4.63,1.91,7.3,1.91s5.1-.64,7.3-1.91ZM398.48,81.91c-3.15-1.85-5.62-4.36-7.41-7.52-1.8-3.17-2.69-6.65-2.69-10.46s.9-7.3,2.69-10.46c1.79-3.16,4.26-5.67,7.41-7.52s6.64-2.78,10.49-2.78,7.33.93,10.46,2.78c3.13,1.85,5.59,4.36,7.38,7.52,1.79,3.16,2.69,6.65,2.69,10.46s-.9,7.3-2.69,10.46c-1.79,3.16-4.26,5.67-7.38,7.52-3.13,1.85-6.61,2.77-10.46,2.77s-7.35-.92-10.49-2.77"/>
            <path id="path54" class="cls-8" d="M437.39,44.05h7.22l17.98,29.2h.33l-.33-7.66v-21.54h6.05v39.74h-6.33l-18.87-30.7h-.33l.33,7.66v23.03h-6.05v-39.74"/>
            <path id="path56" class="cls-8" d="M478.69,44.05h6.11v39.74h-6.11v-39.74"/>
            <path id="path58" class="cls-8" d="M510.33,78.13c1.92,0,3.47-.58,4.63-1.75,1.17-1.17,1.75-2.56,1.75-4.19s-.6-3.03-1.8-4.22c-1.2-1.19-2.8-1.78-4.8-1.78h-9.21v11.93h9.44ZM509.39,60.76c1.85,0,3.33-.56,4.44-1.69,1.11-1.13,1.67-2.43,1.67-3.91s-.55-2.77-1.64-3.86c-1.09-1.09-2.51-1.64-4.25-1.64h-8.71v11.1h8.49ZM494.79,44.05h14.88c2.11,0,4.07.46,5.88,1.39,1.81.93,3.25,2.19,4.3,3.8,1.05,1.61,1.58,3.4,1.58,5.36s-.49,3.67-1.47,5.13c-.98,1.46-2.29,2.58-3.91,3.36v.28c2.07.7,3.72,1.87,4.94,3.5,1.22,1.63,1.83,3.55,1.83,5.77s-.56,4.12-1.69,5.8c-1.13,1.68-2.65,3-4.55,3.94-1.91.94-3.99,1.41-6.24,1.41h-15.54v-39.74"/>
            <path id="path60" class="cls-8" d="M530.87,44.05h6.11v33.97h17.1v5.77h-23.2v-39.74"/>
            <path id="path62" class="cls-8" d="M560.51,44.05h24.09v5.77h-17.99v11.21h16.21v5.77h-16.21v11.21h17.99v5.77h-24.09v-39.74"/>
            <path id="path64" class="cls-8" d="M607.85,81.8c-2.63-1.92-4.46-4.63-5.49-8.1l5.77-2.33c.59,2.22,1.65,4.03,3.16,5.44,1.52,1.41,3.35,2.11,5.5,2.11,2,0,3.69-.52,5.08-1.55,1.39-1.04,2.08-2.46,2.08-4.27,0-1.67-.61-3.04-1.83-4.14-1.22-1.09-3.33-2.16-6.33-3.19l-2.5-.89c-2.7-.96-4.95-2.3-6.75-4.02-1.79-1.72-2.69-4.01-2.69-6.86,0-1.96.53-3.77,1.58-5.44,1.05-1.67,2.53-2.98,4.44-3.94,1.91-.96,4.06-1.44,6.47-1.44,3.44,0,6.2.84,8.27,2.53,2.07,1.69,3.48,3.58,4.22,5.69l-5.5,2.33c-.37-1.33-1.15-2.48-2.33-3.44-1.19-.96-2.72-1.44-4.61-1.44s-3.35.48-4.61,1.44c-1.26.96-1.89,2.18-1.89,3.66,0,1.37.56,2.51,1.69,3.41,1.13.91,2.88,1.77,5.25,2.58l2.55.89c3.41,1.19,6.03,2.72,7.88,4.61,1.85,1.89,2.77,4.41,2.77,7.55,0,2.59-.66,4.77-1.97,6.52-1.31,1.76-3,3.06-5.05,3.91-2.05.85-4.15,1.28-6.3,1.28-3.29,0-6.25-.96-8.88-2.89"/>
            <path id="path66" class="cls-8" d="M644.3,82.69c-2.28-1.33-4.03-3.22-5.27-5.66-1.24-2.44-1.86-5.27-1.86-8.49v-24.48h6.05v24.81c0,3,.78,5.42,2.33,7.27,1.55,1.85,3.76,2.78,6.61,2.78s5.11-.92,6.66-2.78c1.55-1.85,2.33-4.27,2.33-7.27v-24.81h6.05v24.48c0,3.18-.61,5.99-1.83,8.44-1.22,2.44-2.96,4.34-5.22,5.69s-4.92,2.03-7.99,2.03-5.58-.67-7.85-2"/>
            <path id="path68" class="cls-8" d="M690.45,62.59c1.92,0,3.54-.61,4.86-1.83,1.31-1.22,1.97-2.76,1.97-4.61,0-1.7-.6-3.19-1.8-4.47-1.2-1.28-2.8-1.92-4.8-1.92h-7.88v12.82h7.66ZM676.68,44.05h13.93c2.41,0,4.58.52,6.52,1.55,1.94,1.04,3.48,2.48,4.61,4.33,1.13,1.85,1.69,3.94,1.69,6.27,0,2.66-.86,5.02-2.58,7.08-1.72,2.05-3.88,3.43-6.47,4.14l-.06.28,10.94,15.76v.33h-7.05l-10.6-15.6h-4.83v15.6h-6.11v-39.74"/>
          </g>
        </g>
      </g>
    </g>
  </g>
</svg>