<?xml version="1.0" encoding="UTF-8"?>
<svg xmlns="http://www.w3.org/2000/svg" width="64" height="64" viewBox="0 0 64 64" fill="none">
  <path d="M32.0001 14.6665C31.6321 14.6665 31.3334 14.3678 31.3334 13.9998V3.33317C31.3334 2.96517 31.6321 2.6665 32.0001 2.6665C32.3681 2.6665 32.6667 2.96517 32.6667 3.33317V13.9998C32.6667 14.3678 32.3681 14.6665 32.0001 14.6665ZM19.7441 19.7438C20.0041 19.4838 20.0041 19.0612 19.7441 18.8012L12.2014 11.2585C11.9414 10.9985 11.5187 10.9985 11.2587 11.2585C10.9987 11.5185 10.9987 11.9412 11.2587 12.2012L18.8014 19.7438C18.9321 19.8745 19.1027 19.9385 19.2734 19.9385C19.4441 19.9385 19.6147 19.8732 19.7454 19.7438H19.7441ZM14.6667 31.9998C14.6667 31.6318 14.3681 31.3332 14.0001 31.3332H3.33341C2.96541 31.3332 2.66675 31.6318 2.66675 31.9998C2.66675 32.3678 2.96541 32.6665 3.33341 32.6665H14.0001C14.3681 32.6665 14.6667 32.3678 14.6667 31.9998ZM12.2001 52.7425L19.7427 45.1998C20.0027 44.9398 20.0027 44.5172 19.7427 44.2572C19.4827 43.9972 19.0601 43.9972 18.8001 44.2572L11.2574 51.7998C10.9974 52.0598 10.9974 52.4825 11.2574 52.7425C11.3881 52.8732 11.5587 52.9372 11.7294 52.9372C11.9001 52.9372 12.0707 52.8718 12.2014 52.7425H12.2001ZM32.6667 60.6665V49.9998C32.6667 49.6318 32.3681 49.3332 32.0001 49.3332C31.6321 49.3332 31.3334 49.6318 31.3334 49.9998V60.6665C31.3334 61.0345 31.6321 61.3332 32.0001 61.3332C32.3681 61.3332 32.6667 61.0345 32.6667 60.6665ZM52.7427 52.7425C53.0027 52.4825 53.0027 52.0598 52.7427 51.7998L45.2001 44.2572C44.9401 43.9972 44.5174 43.9972 44.2574 44.2572C43.9974 44.5172 43.9974 44.9398 44.2574 45.1998L51.8001 52.7425C51.9307 52.8732 52.1014 52.9372 52.2721 52.9372C52.4427 52.9372 52.6121 52.8718 52.7427 52.7425ZM61.3334 31.9998C61.3334 31.6318 61.0347 31.3332 60.6667 31.3332H50.0001C49.6321 31.3332 49.3334 31.6318 49.3334 31.9998C49.3334 32.3678 49.6321 32.6665 50.0001 32.6665H60.6667C61.0347 32.6665 61.3334 32.3678 61.3334 31.9998ZM45.1987 19.7438L52.7414 12.2012C53.0014 11.9412 53.0014 11.5185 52.7414 11.2585C52.4814 10.9985 52.0587 10.9985 51.7987 11.2585L44.2561 18.8012C43.9961 19.0612 43.9961 19.4838 44.2561 19.7438C44.3867 19.8745 44.5574 19.9385 44.7281 19.9385C44.8988 19.9385 45.0694 19.8732 45.2001 19.7438H45.1987ZM26.8961 19.6812C27.2361 19.5412 27.3974 19.1505 27.2574 18.8105L24.1961 11.4198C24.0561 11.0798 23.6681 10.9158 23.3254 11.0585C22.9854 11.1985 22.8241 11.5892 22.9641 11.9292L26.0254 19.3198C26.1321 19.5758 26.3801 19.7318 26.6414 19.7318C26.7254 19.7318 26.8134 19.7158 26.8961 19.6812ZM19.6801 26.8972C19.8201 26.5572 19.6587 26.1665 19.3187 26.0265L11.9281 22.9652C11.5894 22.8252 11.1987 22.9865 11.0574 23.3265C10.9174 23.6665 11.0787 24.0572 11.4187 24.1972L18.8094 27.2585C18.8921 27.2932 18.9801 27.3092 19.0641 27.3092C19.3254 27.3092 19.5734 27.1545 19.6801 26.8972ZM11.9294 41.0358L19.3201 37.9745C19.6601 37.8345 19.8214 37.4438 19.6814 37.1038C19.5414 36.7638 19.1534 36.6025 18.8107 36.7425L11.4201 39.8038C11.0801 39.9438 10.9187 40.3345 11.0587 40.6745C11.1654 40.9305 11.4134 41.0865 11.6747 41.0865C11.7587 41.0865 11.8467 41.0705 11.9294 41.0358ZM24.1961 52.5812L27.2574 45.1905C27.3974 44.8505 27.2361 44.4598 26.8961 44.3198C26.5574 44.1772 26.1667 44.3412 26.0254 44.6812L22.9641 52.0718C22.8241 52.4118 22.9854 52.8025 23.3254 52.9425C23.4081 52.9772 23.4947 52.9932 23.5801 52.9932C23.8414 52.9932 24.0894 52.8385 24.1961 52.5812ZM40.6734 52.9425C41.0134 52.8025 41.1747 52.4118 41.0347 52.0718L37.9734 44.6812C37.8334 44.3412 37.4454 44.1772 37.1027 44.3198C36.7627 44.4598 36.6014 44.8505 36.7414 45.1905L39.8027 52.5812C39.9094 52.8372 40.1574 52.9932 40.4187 52.9932C40.5027 52.9932 40.5907 52.9772 40.6734 52.9425ZM52.9401 40.6758C53.0801 40.3358 52.9187 39.9452 52.5787 39.8052L45.1881 36.7438C44.8481 36.6025 44.4574 36.7652 44.3174 37.1052C44.1774 37.4452 44.3387 37.8358 44.6787 37.9758L52.0694 41.0372C52.1521 41.0718 52.2388 41.0878 52.3241 41.0878C52.5854 41.0878 52.8334 40.9332 52.9401 40.6758ZM45.1894 27.2598L52.5801 24.1985C52.9201 24.0585 53.0814 23.6678 52.9414 23.3278C52.8014 22.9892 52.4134 22.8238 52.0708 22.9665L44.6801 26.0278C44.3401 26.1678 44.1787 26.5585 44.3187 26.8985C44.4254 27.1545 44.6734 27.3105 44.9347 27.3105C45.0187 27.3105 45.1067 27.2945 45.1894 27.2598ZM37.9734 19.3225L41.0347 11.9318C41.1747 11.5918 41.0134 11.2012 40.6734 11.0612C40.3347 10.9198 39.9441 11.0812 39.8027 11.4225L36.7414 18.8132C36.6014 19.1532 36.7627 19.5438 37.1027 19.6838C37.1854 19.7185 37.2721 19.7345 37.3574 19.7345C37.6187 19.7345 37.8667 19.5798 37.9734 19.3225Z" fill="#001B41"></path>
  <path d="M32 20L35.4467 27.0413L43.208 28.1427L37.576 33.5973L38.9267 41.3187L32 37.648L25.0733 41.3187L26.424 33.5973L20.792 28.1427L28.5533 27.0413L32 20Z" fill="#1474C4"></path>
  <path d="M45.3333 6.66667C45.3333 8.14 44.14 9.33333 42.6667 9.33333C41.1933 9.33333 40 8.14 40 6.66667C40 5.19333 41.1933 4 42.6667 4C44.14 4 45.3333 5.19333 45.3333 6.66667ZM21.3333 4C19.86 4 18.6667 5.19333 18.6667 6.66667C18.6667 8.14 19.86 9.33333 21.3333 9.33333C22.8067 9.33333 24 8.14 24 6.66667C24 5.19333 22.8067 4 21.3333 4ZM42.6667 54.6667C41.1933 54.6667 40 55.86 40 57.3333C40 58.8067 41.1933 60 42.6667 60C44.14 60 45.3333 58.8067 45.3333 57.3333C45.3333 55.86 44.14 54.6667 42.6667 54.6667ZM21.3333 54.6667C19.86 54.6667 18.6667 55.86 18.6667 57.3333C18.6667 58.8067 19.86 60 21.3333 60C22.8067 60 24 58.8067 24 57.3333C24 55.86 22.8067 54.6667 21.3333 54.6667ZM57.3333 18.6667C55.86 18.6667 54.6667 19.86 54.6667 21.3333C54.6667 22.8067 55.86 24 57.3333 24C58.8067 24 60 22.8067 60 21.3333C60 19.86 58.8067 18.6667 57.3333 18.6667ZM57.3333 40C55.86 40 54.6667 41.1933 54.6667 42.6667C54.6667 44.14 55.86 45.3333 57.3333 45.3333C58.8067 45.3333 60 44.14 60 42.6667C60 41.1933 58.8067 40 57.3333 40ZM6.66667 18.6667C5.19333 18.6667 4 19.86 4 21.3333C4 22.8067 5.19333 24 6.66667 24C8.14 24 9.33333 22.8067 9.33333 21.3333C9.33333 19.86 8.14 18.6667 6.66667 18.6667ZM6.66667 40C5.19333 40 4 41.1933 4 42.6667C4 44.14 5.19333 45.3333 6.66667 45.3333C8.14 45.3333 9.33333 44.14 9.33333 42.6667C9.33333 41.1933 8.14 40 6.66667 40Z" fill="#95CAEB"></path>
</svg>
