<?xml version="1.0" encoding="UTF-8"?>
<svg xmlns="http://www.w3.org/2000/svg" xmlns:xlink="http://www.w3.org/1999/xlink" version="1.1" id="Ebene_1" x="0px" y="0px" viewBox="0 0 48 48" xml:space="preserve">
<g id="domains-generic">
	<path fill="#1474C4" d="M10.5,16C7.462,16,5,13.538,5,10.5S7.462,5,10.5,5h13c3.038,0,5.5,2.462,5.5,5.5S26.538,16,23.5,16H10.5z"></path>
	<path fill="#FFFFFF" d="M23.5,11h-13c-0.276,0-0.5-0.224-0.5-0.5s0.224-0.5,0.5-0.5h13c0.276,0,0.5,0.224,0.5,0.5   S23.776,11,23.5,11z"></path>
	<path fill="#001B41" d="M24.5,43c-3.038,0-5.5-2.462-5.5-5.5s2.462-5.5,5.5-5.5h13c3.038,0,5.5,2.462,5.5,5.5S40.538,43,37.5,43   H24.5z"></path>
	<path fill="#95CAEB" d="M37.5,38h-13c-0.276,0-0.5-0.224-0.5-0.5s0.224-0.5,0.5-0.5h13c0.276,0,0.5,0.224,0.5,0.5   S37.776,38,37.5,38z"></path>
	<path fill="#95CAEB" d="M36,34c5.523,0,10-4.477,10-10s-4.477-10-10-10H12C6.477,14,2,18.477,2,24s4.477,10,10,10H36z"></path>
	<g>
		<path fill="#001B41" d="M11.162,27.304L9.259,20.15h1.428l1.008,4.452c0.065,0.28,0.112,0.523,0.14,0.728    c0.029-0.177,0.08-0.42,0.154-0.728l1.19-4.452h1.344l1.19,4.452c0.074,0.308,0.125,0.551,0.154,0.728    c0.027-0.205,0.074-0.448,0.139-0.728l1.009-4.452h1.428l-1.903,7.154h-1.29l-1.189-4.158c-0.111-0.382-0.188-0.681-0.225-0.896    c-0.047,0.299-0.116,0.602-0.209,0.91l-1.176,4.144H11.162z"></path>
		<path fill="#001B41" d="M21.393,27.304l-1.904-7.154h1.428l1.008,4.452c0.066,0.28,0.113,0.523,0.141,0.728    c0.028-0.177,0.079-0.42,0.154-0.728l1.189-4.452h1.344l1.191,4.452c0.074,0.308,0.125,0.551,0.152,0.728    c0.029-0.205,0.076-0.448,0.141-0.728l1.008-4.452h1.428l-1.904,7.154H25.48l-1.189-4.158c-0.112-0.382-0.188-0.681-0.225-0.896    c-0.047,0.299-0.117,0.602-0.21,0.91l-1.176,4.144H21.393z"></path>
		<path fill="#001B41" d="M31.622,27.304l-1.903-7.154h1.428l1.008,4.452c0.065,0.28,0.112,0.523,0.141,0.728    c0.027-0.177,0.079-0.42,0.153-0.728l1.19-4.452h1.344l1.19,4.452c0.074,0.308,0.126,0.551,0.153,0.728    c0.028-0.205,0.075-0.448,0.141-0.728l1.008-4.452h1.428l-1.904,7.154h-1.287l-1.19-4.158c-0.112-0.382-0.187-0.681-0.224-0.896    c-0.047,0.299-0.117,0.602-0.21,0.91l-1.177,4.144H31.622z"></path>
	</g>
</g>
</svg>
