<svg xmlns="http://www.w3.org/2000/svg" xml:space="preserve" id="Icon_export" x="0" y="0" version="1.1" viewBox="0 0 48 48"><style>.st0{fill:#95caeb}.st1{fill:#fff}</style><path d="M42.5 19.7 24 8v26h19V20.6c0-.4-.2-.7-.5-.9" class="st0"/><path d="M5.5 19.7 24 8v26H5V20.6c0-.4.2-.7.5-.9" class="st1"/><path d="M10 5h28v35H10z" style="fill:#3196d6"/><path d="M28 11.5h-1V9.6c0-.3-.3-.6-.6-.6h-4.8c-.3 0-.6.3-.6.6v1.9h-1V9.6c0-.9.7-1.6 1.6-1.6h4.8c.9 0 1.6.7 1.6 1.6z" class="st1"/><path d="M14.5 13.5h19V23c0 .5-.4 1-1 1H15.4c-.5 0-.9-.4-.9-1z" style="fill:#001b41"/><path d="m14.5 15.3 9 3.3h1l9-3.3V12c0-.5-.4-.9-1-.9H15.4c-.5 0-.9.4-.9.9z" class="st0"/><path d="M7 43h35c.6 0 1-.4 1-1V22z" class="st1"/><path d="M5 22v20c0 .6.4 1 1 1h35z" class="st0"/><path d="M24 17c.6 0 1 .4 1 1v1c0 .6-.4 1-1 1s-1-.4-1-1v-1c0-.6.4-1 1-1" class="st1"/><path d="M0 0h48v48H0z" style="fill:none"/></svg>