<svg xmlns="http://www.w3.org/2000/svg" viewBox="0 0 48 48"><path d="M42.534 19.706 24 8v26h19V20.551a1 1 0 0 0-.466-.845" style="fill:#1474c4;stroke-width:0"/><path d="M5.466 19.706 24 8v26H5V20.551a1 1 0 0 1 .466-.845" style="fill:#001b41;stroke-width:0"/><path d="M10 5h28v35H10z" style="fill:#95caeb;stroke-width:0"/><path d="M7 43h35a1 1 0 0 0 1-1V22z" style="fill:#001b41;stroke-width:0"/><path d="M5 22v20a1 1 0 0 0 1 1h35z" style="fill:#1474c4;stroke-width:0"/><path d="M23.504 18.992h2.998V22l5.995-4.942L26.502 12v3.02h-9.998v3.972z" style="fill:#001b41;stroke-width:0"/><path d="M0 0h48v48H0z" style="fill:none;stroke-width:0"/></svg>