<svg xmlns="http://www.w3.org/2000/svg" viewBox="0 0 48 48"><path d="M10 5h28v35H10z" style="fill:#95caeb"/><path d="m10 16.842-4.534 2.864a1 1 0 0 0-.466.845V34h5zM24 10c-3.859 0-7 3.14-7 7s3.141 7 7 7c.944 0 1.861-.186 2.725-.55a.5.5 0 0 0-.388-.922A6.006 6.006 0 0 1 18.001 17c0-3.309 2.691-6 6-6 3.589 0 6 2.479 6 6.169 0 2.457-3 2.292-3 .254V17c0-1.654-1.346-3-3-3s-3 1.346-3 3 1.346 3 3 3a2.99 2.99 0 0 0 2.389-1.205 2.46 2.46 0 0 0 2.111 1.176c1.242 0 2.5-.963 2.5-2.802 0-4.221-2.879-7.169-7-7.169Zm0 9c-1.103 0-2-.897-2-2s.897-2 2-2 2 .897 2 2-.897 2-2 2" style="fill:#001b41"/><path d="M42.534 19.706 38 16.842V34h5V20.551a1 1 0 0 0-.466-.845" style="fill:#1474c4"/><path d="M7 43h35a1 1 0 0 0 1-1V22z" style="fill:#001b41"/><path d="M5 22v20a1 1 0 0 0 1 1h35z" style="fill:#1474c4"/></svg>