<svg xmlns="http://www.w3.org/2000/svg" viewBox="0 0 48 48"><path d="M27 24H13l-4.414-4.414A2 2 0 0 1 8 18.172V7a2 2 0 0 1 2-2h11.172a2 2 0 0 1 1.414.586L27 10z" style="fill:#95caeb"/><path d="M44 43H32.828a2 2 0 0 1-1.414-.586L27 38V24h14l4.414 4.414A2 2 0 0 1 46 29.828V41a2 2 0 0 1-2 2" style="fill:#001b41"/><path d="M31.414 5.586 27 10v11a3 3 0 0 1-3 3H13l-4.414 4.414A2 2 0 0 0 8 29.828V41a2 2 0 0 0 2 2h11.172a2 2 0 0 0 1.414-.586L27 38V27a3 3 0 0 1 3-3h11l4.414-4.414A2 2 0 0 0 46 18.172V7a2 2 0 0 0-2-2H32.828a2 2 0 0 0-1.414.586" style="fill:#1474c4"/><rect width="21" height="21" x="2" y="13" rx="1" ry="1" style="fill:#001b41"/><path d="M8.734 17.563h7.751v1.921h-5.712v2.873h3.519v1.921h-3.519v3.264h6.086v1.921H8.734V17.564Z" style="fill:#95caeb"/></svg>